<svg width="72" height="69" viewBox="0 0 72 69" fill="none" xmlns="http://www.w3.org/2000/svg">
<path d="M15.2362 36.5722C15.2362 30.6799 0 35.2772 0 22.9864C0 16.9176 4.93701 11.9966 11.0256 11.9966C17.1142 11.9966 22.0512 16.9176 22.0512 22.9864H15.2362C15.2362 20.6672 13.3524 18.7895 11.0256 18.7895C8.69882 18.7895 6.81496 20.6672 6.81496 22.9864C6.81496 28.7904 22.0512 24.2873 22.0512 36.5722C22.0512 42.641 17.1142 47.562 11.0256 47.562C4.93701 47.562 0 42.641 0 36.5722H6.81496C6.81496 38.8914 8.69882 40.7691 11.0256 40.7691C13.3524 40.7691 15.2362 38.8914 15.2362 36.5722Z" fill="white"/>
<path d="M46.7185 13.5974V45.9548H41.4331C39.7618 46.9731 37.7953 47.5618 35.6929 47.5618C29.6043 47.5618 24.6673 42.6407 24.6673 36.5719V13.5974H31.4823V36.5719C31.4823 38.8911 33.3661 40.7689 35.6929 40.7689C38.0197 40.7689 39.9036 38.8911 39.9036 36.5719V13.5974H46.7185Z" fill="white"/>
<path d="M60.9744 11.9966V18.7895C58.6476 18.7895 56.7638 20.6672 56.7638 22.9864V45.9609H49.9488V13.5977H55.2343C56.9114 12.5793 58.8721 11.9966 60.9744 11.9966Z" fill="white"/>
<path d="M72 10.9898V45.9549H65.185V10.9898C65.185 8.67062 63.2953 6.79287 60.9685 6.79287V0C67.0689 0 72 4.921 72 10.9898Z" fill="white"/>
<path d="M5.39764 55.897H0V50.7288H16.9193V55.897H11.5217V69H5.39764V55.897Z" fill="white"/>
<path d="M18.3071 50.7288H33.9449V55.7381H24.3307V57.5923H33.2894V62.007H24.3307V63.9907H34.0748V69H18.3071V50.7288Z" fill="white"/>
<path d="M35.7283 50.7288H41.8583V63.7788H50.4744V69H35.7283V50.7288Z" fill="white"/>
<path d="M58.1988 50.5933H64.2756L72 68.9999H65.3504L64.3819 66.5453H57.9626L57.0177 68.9999H50.4744L58.1988 50.5933ZM62.8642 62.213L61.187 57.7746L59.5099 62.213H62.8642Z" fill="white"/>
</svg>
